<svg xmlns="http://www.w3.org/2000/svg" viewBox="0 0 28 24"
     width="224" height="192" shape-rendering="crispEdges"
     role="img" aria-label="Квантовый кот: Одновременно исправил и не трогал">
  <title>Квантовый кот</title>
  <rect width="28" height="24" rx="2" fill="#FAF9F5" stroke="#E5DED0"/>
  <g transform="translate(2 2)"><g class="cat-tail"><rect x="22" y="6" width="2" height="1" fill="#E0A93B"/><rect x="21" y="7" width="3" height="1" fill="#E0A93B"/><rect x="21" y="8" width="2" height="1" fill="#E0A93B"/><rect x="21" y="9" width="2" height="1" fill="#E0A93B"/><rect x="21" y="10" width="2" height="1" fill="#E0A93B"/><rect x="21" y="11" width="2" height="1" fill="#E0A93B"/><rect x="21" y="12" width="2" height="1" fill="#E0A93B"/><rect x="19" y="13" width="4" height="1" fill="#E0A93B"/><rect x="19" y="14" width="4" height="1" fill="#E0A93B"/></g><g class="cat-body"><rect x="5" y="3" width="2" height="1" fill="#E0A93B"/><rect x="17" y="3" width="2" height="1" fill="#E0A93B"/><rect x="3" y="4" width="1" height="1" fill="#E0A93B"/><rect x="5" y="4" width="2" height="1" fill="#E0A93B"/><rect x="17" y="4" width="2" height="1" fill="#E0A93B"/><rect x="2" y="5" width="3" height="1" fill="#E0A93B"/><rect x="5" y="5" width="13" height="1" fill="#E0A93B"/><rect x="18" y="5" width="1" height="1" fill="#A2731F"/><rect x="3" y="6" width="1" height="1" fill="#E0A93B"/><rect x="5" y="6" width="13" height="1" fill="#E0A93B"/><rect x="18" y="6" width="1" height="1" fill="#A2731F"/><rect x="5" y="7" width="13" height="1" fill="#E0A93B"/><rect x="18" y="7" width="1" height="1" fill="#A2731F"/><rect x="5" y="8" width="13" height="1" fill="#E0A93B"/><rect x="18" y="8" width="1" height="1" fill="#A2731F"/><rect x="2" y="9" width="3" height="1" fill="#A2731F"/><rect x="5" y="9" width="13" height="1" fill="#E0A93B"/><rect x="18" y="9" width="3" height="1" fill="#A2731F"/><rect x="5" y="10" width="6" height="1" fill="#E0A93B"/><rect x="11" y="10" width="2" height="1" fill="#141413"/><rect x="13" y="10" width="5" height="1" fill="#E0A93B"/><rect x="18" y="10" width="1" height="1" fill="#A2731F"/><rect x="2" y="11" width="3" height="1" fill="#A2731F"/><rect x="5" y="11" width="2" height="1" fill="#E0A93B"/><rect x="7" y="11" width="2" height="1" fill="#FAF9F5" fill-opacity="0.45"/><rect x="9" y="11" width="6" height="1" fill="#E0A93B"/><rect x="15" y="11" width="2" height="1" fill="#FAF9F5" fill-opacity="0.45"/><rect x="17" y="11" width="1" height="1" fill="#E0A93B"/><rect x="18" y="11" width="3" height="1" fill="#A2731F"/><rect x="5" y="12" width="2" height="1" fill="#E0A93B"/><rect x="7" y="12" width="2" height="1" fill="#FAF9F5" fill-opacity="0.45"/><rect x="9" y="12" width="6" height="1" fill="#E0A93B"/><rect x="15" y="12" width="2" height="1" fill="#FAF9F5" fill-opacity="0.45"/><rect x="17" y="12" width="1" height="1" fill="#E0A93B"/><rect x="18" y="12" width="1" height="1" fill="#A2731F"/><rect x="3" y="13" width="1" height="1" fill="#E0A93B"/><rect x="5" y="13" width="4" height="1" fill="#E0A93B"/><rect x="9" y="13" width="6" height="1" fill="#E0A93B"/><rect x="15" y="13" width="3" height="1" fill="#E0A93B"/><rect x="18" y="13" width="1" height="1" fill="#A2731F"/><rect x="2" y="14" width="3" height="1" fill="#E0A93B"/><rect x="5" y="14" width="1" height="1" fill="#E0A93B"/><rect x="6" y="14" width="12" height="1" fill="#6B4E9B"/><rect x="18" y="14" width="1" height="1" fill="#A2731F"/><rect x="3" y="15" width="1" height="1" fill="#E0A93B"/><rect x="6" y="15" width="12" height="1" fill="#6B4E9B"/><rect x="2" y="16" width="1" height="1" fill="#E0A93B"/><rect x="6" y="16" width="2" height="1" fill="#E0A93B"/><rect x="9" y="16" width="2" height="1" fill="#E0A93B"/><rect x="13" y="16" width="2" height="1" fill="#E0A93B"/><rect x="16" y="16" width="2" height="1" fill="#E0A93B"/><rect x="1" y="17" width="3" height="1" fill="#E0A93B"/><rect x="6" y="17" width="2" height="1" fill="#E0A93B"/><rect x="9" y="17" width="2" height="1" fill="#E0A93B"/><rect x="13" y="17" width="2" height="1" fill="#E0A93B"/><rect x="16" y="17" width="2" height="1" fill="#E0A93B"/><rect x="2" y="18" width="1" height="1" fill="#E0A93B"/></g><g class="cat-eyes"><rect x="7" y="8" width="2" height="1" fill="#141413"/><rect x="15" y="8" width="2" height="1" fill="#141413"/><rect x="7" y="9" width="2" height="1" fill="#141413"/><rect x="15" y="9" width="2" height="1" fill="#141413"/></g><g class="cat-eyes-shut"><rect x="7" y="9" width="2" height="1" fill="#141413"/><rect x="15" y="9" width="2" height="1" fill="#141413"/></g><g class="cat-mouth"><rect x="10" y="12" width="4" height="1" fill="#141413"/></g><g class="cat-mouth-open"><rect x="10" y="11" width="4" height="1" fill="#141413"/><rect x="10" y="12" width="1" height="1" fill="#141413"/><rect x="11" y="12" width="2" height="1" fill="#FAF9F5"/><rect x="13" y="12" width="1" height="1" fill="#141413"/></g><g class="cat-hat"><rect x="14" y="0" width="3" height="1" fill="#6B4E9B"/><rect x="12" y="1" width="4" height="1" fill="#6B4E9B"/><rect x="10" y="2" width="2" height="1" fill="#6B4E9B"/><rect x="12" y="2" width="1" height="1" fill="#E0A93B"/><rect x="13" y="2" width="2" height="1" fill="#6B4E9B"/><rect x="9" y="3" width="6" height="1" fill="#6B4E9B"/><rect x="8" y="4" width="8" height="1" fill="#6B4E9B"/></g></g>
</svg>
